<?xml version="1.0" encoding="utf-8"?>
<!-- Generator: Adobe Illustrator 21.1.0, SVG Export Plug-In . SVG Version: 6.00 Build 0)  -->
<svg version="1.1" id="Layer_1" xmlns="http://www.w3.org/2000/svg" xmlns:xlink="http://www.w3.org/1999/xlink" x="0px" y="0px"
	 viewBox="0 0 1024 1024" style="enable-background:new 0 0 1024 1024;" xml:space="preserve">
<style type="text/css">
	.st0{fill:#FF243F;}
</style>
<path class="st0" d="M364.4,685.2c-3.5,0-5.6-0.2-7.5-0.7c-4.5-1.3-7.4-5.7-6.8-10.3l2.9-24.4c0.6-4.8,4.7-8.4,9.5-8.4h21.2
	c9.4,0,16.3-4.2,20.3-12.6l13.3-26.7l-48.5-174.9c-0.8-2.9-0.2-6,1.6-8.4c1.8-2.4,4.6-3.8,7.6-3.8H412c4.4,0,8.2,3,9.3,7.2l29,114.8
	L506,420.4c1.6-3.4,5-5.5,8.7-5.5H546c3.3,0,6.4,1.7,8.2,4.5c1.8,2.9,1.9,6.3,0.4,9.3L448,643.9c-14,28.3-32.8,41-61.3,41
	c-5.7,0-10.8,0.1-14.9,0.2C368.8,685.2,366.4,685.2,364.4,685.2z M803.2,617.1c-23.5,0-42.7-7.9-55.4-22.8
	c-16.3-19-23-47.9-18.9-81.4c4.2-34.2,18.7-64.1,39.7-82.3c0,0,0.1,0,0.1-0.1c15.7-13.3,35.5-20.3,57.4-20.3
	c13.4,0,29.5,4.1,41.8,12.8l9.2-75.9c0.6-4.8,4.7-8.4,9.5-8.4h30c2.8,0,5.4,1.2,7.1,3.2c1.8,2,2.7,4.8,2.4,7.5l-31,254.6
	c-0.6,4.8-4.7,8.4-9.5,8.4h-26.5c-2.6,0-5.1-1.1-7-2.9c-1.8-1.9-2.8-4.5-2.6-7.1l0.1-1.7c-2.2,1.4-4.3,2.7-6.1,3.8
	C829.4,612.5,814.3,617.1,803.2,617.1z M865.2,573.7L865.2,573.7L865.2,573.7z M865.2,573.6L865.2,573.6L865.2,573.6z M825.5,454.9
	c-15,0-26.5,5.9-35,17.9c-7.2,10.2-12.1,24.7-14.2,42.1c-2.7,22.1,0.3,39.4,8.5,48.6c5.4,6.1,13.3,9.1,24.1,9.1
	c8.8,0,16.1-2.9,24.3-9.5c0,0,0.1,0,0.1-0.1c12.4-9.9,20.3-26.9,23.1-50.4C858.2,496.7,859.5,454.9,825.5,454.9z M696.6,612.5h-30
	c-2.8,0-5.4-1.2-7.1-3.2c-1.8-2-2.7-4.8-2.4-7.5l13.8-113.2c1.5-12.2,0.1-20.8-4.2-25.5c-3.7-4.2-10.5-6.4-20.3-6.4
	c-12.9,0-25.1,8.3-33.9,22.8c-7,12.1-9.3,31.4-10.6,41.8l-10.1,82.9c-0.6,4.8-4.7,8.4-9.5,8.4h-29.9c-2.8,0-5.4-1.2-7.1-3.2
	c-1.8-2-2.7-4.8-2.4-7.5l21.7-178.4c0.6-4.8,4.7-8.4,9.5-8.4h26.1c2.6,0,5,1,6.9,2.9c1.8,1.9,2.8,4.4,2.7,7v1.3
	c14.7-10.7,32.9-15.7,47.4-15.7c21.8,0,38.7,6.4,49.8,19c11.9,13.4,16.4,32.7,13.4,57.3l-14.3,117.4
	C705.6,608.9,701.5,612.5,696.6,612.5z M720.1,485.5L720.1,485.5L720.1,485.5z M283.1,612.5h-28.9c-4.5,0-8.4-3.1-9.3-7.6L221,496.1
	L168.8,607c-1.6,3.4-5,5.5-8.7,5.5h-28.6c-4.8,0-8.8-3.5-9.5-8.3L97.9,425.8c-0.3-2.8,0.4-5.5,2.3-7.6c1.8-2.1,4.5-3.3,7.2-3.3H137
	c4.8,0,8.9,3.5,9.5,8.3l13.5,102l47.7-102.7c1.6-3.4,5-5.5,8.7-5.5h25.7c4.5,0,8.4,3.2,9.4,7.6l21.8,100.8l39.4-104.4
	c1.4-3.7,5-6.2,9-6.2H351c3.2,0,6.1,1.5,7.9,4.1s2.2,5.9,1.1,8.8l-67.9,178.4C290.6,610.1,287.1,612.5,283.1,612.5z"/>
</svg>
